<?xml version="1.0" encoding="UTF-8"?>
<svg id="Layer_1" data-name="Layer 1" xmlns="http://www.w3.org/2000/svg" viewBox="0 0 1650.89 294.57">
  <defs>
    <style>
      .cls-1 {
        fill: #34357b;
      }

      .cls-1, .cls-2, .cls-3, .cls-4, .cls-5, .cls-6, .cls-7, .cls-8, .cls-9, .cls-10, .cls-11, .cls-12 {
        stroke-width: 0px;
      }

      .cls-2 {
        fill: #262772;
      }

      .cls-3 {
        fill: #313179;
      }

      .cls-4 {
        fill: #2f2f77;
      }

      .cls-5 {
        fill: #1a1a6a;
      }

      .cls-6 {
        fill: #1b1c6b;
      }

      .cls-7 {
        fill: #232370;
      }

      .cls-8 {
        fill: #21226f;
      }

      .cls-9 {
        fill: #20216e;
      }

      .cls-10 {
        fill: #232470;
      }

      .cls-11 {
        fill: #1e1f6d;
      }

      .cls-12 {
        fill: #dc0809;
      }
    </style>
  </defs>
  <path class="cls-5" d="m84.36,187.94c5.45-27.57,13.5-54.27,26.31-79.39,4.81-9.44,10.4-18.39,17.04-26.67,4.3-5.36,8.99-10.36,14.16-14.89,15.17-13.26,32.83-20.34,52.95-21.38,10.96-.57,21.71.52,32.13,3.96,21.12,6.98,36.73,20.42,46.46,40.48,5.27,10.87,8.5,22.39,10.28,34.32.8,5.36,1.45,10.75,2.17,16.13-.56.61-1.02,1.38-1.7,1.81-5.22,3.24-10.71,5.92-16.44,8.12-.76.29-1.65.22-2.48.32-1.81-7.22-4.6-14.08-7.79-20.76-3.33-6.96-7.52-13.42-12.55-19.3-7.84-9.15-17.57-15.29-29.24-18.3-4.69-1.21-9.46-1.97-14.28-2.57-10.4-1.29-20.46.12-30.32,3.37-11.87,3.91-21.93,10.75-30.94,19.28-11.51,10.91-20.46,23.7-27.76,37.7-4.74,9.1-8.84,18.5-12.4,28.13-1.18,3.2-2.66,6.29-3.24,9.69-4.12,1.15-8.25,1.28-12.36-.05Z"/>
  <path class="cls-12" d="m265.25,150.75c.83-.1,1.72-.03,2.48-.32,5.73-2.2,11.23-4.89,16.44-8.12.68-.42,1.14-1.2,1.7-1.81,2.07-.91,4.22-1.68,6.2-2.77,16.03-8.74,31.24-18.74,45.51-30.15,2-1.6,4.06-3.13,6.14-4.61.33-.24.95-.06,1.44-.08-.03.25.04.56-.09.75-4.57,6.93-10.02,13.11-16.12,18.73-8.82,8.15-18.58,15.04-28.76,21.36-4.83,3-9.69,5.98-14.53,8.96-5.79,2.22-11.2,5.21-16.57,8.29-.47.27-.8.78-1.19,1.17-2.89.39-5.35,1.91-7.95,3.04-25.65,11.19-51.97,20.44-79.11,27.34-15.48,3.93-31.1,7.15-46.87,9.71-14.66,2.38-29.44,3.57-44.2,4.94-3.05-.35-6.1-.47-9.14.14-2.27-.14-4.55-.43-6.82-.4-9.42.12-18.8-.67-28.15-1.63-8.5-.87-16.92-2.32-25.07-5.05-4.06-1.36-8-2.99-11.61-5.33-8.27-5.34-11.48-13.41-6.91-23.72,1.76-3.97,4.22-7.42,7.16-10.55,4.5-4.79,9.44-9.09,14.73-12.99,6.88-5.08,14.11-9.63,21.5-13.92.38-.22,1.01-.02,1.53-.02-.05.26,0,.61-.16.77-2.33,2.5-4.66,4.99-7.03,7.46-3.57,3.72-6.7,7.78-9.13,12.32-1.76,3.29-2.88,6.79-2.88,10.61,0,4.55,1.72,8.29,4.99,11.38,2.1,1.99,4.56,3.43,7.18,4.56,3.93,1.69,8,2.96,12.18,3.89,7.25,1.62,14.62,2.35,21.98,3.13,3.38.36,6.82.07,10.23.07,4.11,1.34,8.24,1.2,12.36.05,1.98.1,3.96.29,5.95.29,7.98.03,15.89-.91,23.83-1.57,10.78-.9,21.48-2.43,32.08-4.44,12.28-2.33,24.47-5.11,36.66-7.85,16.09-3.62,31.97-7.99,47.41-13.84,7.68-2.91,15.48-5.62,22.6-9.84Z"/>
  <path class="cls-9" d="m1390.8,63.13c1.43,0,2.86-.06,4.28.02,1.22.07,2.18.76,2.61,1.89.91,2.4,1.73,4.83,2.53,7.26,3.4,10.28,6.79,20.57,10.19,30.86.27.8.54,1.64,1,2.33.26.4.89.58,1.39.78.14.05.5-.16.58-.33.7-1.55,1.46-3.09,2.01-4.7,3.49-10.25,6.92-20.53,10.39-30.79.64-1.89,1.24-3.8,2.06-5.62.3-.66,1.12-1.37,1.82-1.51,1.38-.28,2.83-.24,4.26-.24,7.22,0,6.83-.42,7.98,6.72,2.05,12.67,4.27,25.31,6.43,37.96.86,5.06,1.77,10.11,2.62,15.18.33,1.97.59,3.95.83,5.93.14,1.17-.8,2.38-1.82,2.38-11.64.05-10.04,1.82-12.09-9.96-1.37-7.87-2.6-15.76-3.95-23.63-.19-1.1-.68-2.15-1.07-3.22-.09-.26-.38-.7-.45-.68-.52.18-1.21.32-1.46.72-.59.96-1.04,2.03-1.4,3.1-3,8.92-5.95,17.85-8.96,26.76-.64,1.88-1.37,3.74-2.16,5.56-.2.46-.77.95-1.25,1.05-3.1.64-6.22.6-9.33.04-.47-.08-1-.6-1.24-1.06-.53-.99-.97-2.05-1.33-3.13-2.94-8.93-5.81-17.89-8.8-26.81-.62-1.86-1.63-3.6-2.51-5.37-.05-.1-.48-.05-.73-.02-.28.04-.73.05-.8.21-.34.74-.68,1.51-.82,2.31-1.72,9.83-3.39,19.68-5.1,29.51-.19,1.11-.43,2.24-.82,3.29-.17.46-.79,1.04-1.23,1.06-3.12.12-6.25.14-9.37.13-.96,0-1.86-1.42-1.69-2.53.39-2.54.79-5.07,1.22-7.61,2.93-17.44,5.87-34.88,8.82-52.31.19-1.12.53-2.22.83-3.32.43-1.58,1.26-2.19,3.13-2.23,1.14-.03,2.28,0,3.42,0v.03Z"/>
  <path class="cls-12" d="m383.65,146.89c0,45.68,0,91.36,0,137.04,0,2.85-.06,5.71-.12,8.56-.02,1.07-1.1,2.09-2.26,2.07-1.7-.03-3.41-.08-5.1-.28-.42-.05-.89-.63-1.13-1.08-.25-.47-.34-1.08-.35-1.63-.05-2.57-.06-5.14-.06-7.71,0-91.07,0-182.15,0-273.22,0-2.85.09-5.7.18-8.55.04-1.15,1.01-2.09,2.25-2.09,1.69,0,3.39.06,5.07.26.41.05,1.04.68,1.08,1.09.23,2.26.41,4.53.41,6.79.03,23.98.02,47.96.02,71.95,0,22.27,0,44.54,0,66.81Z"/>
  <path class="cls-6" d="m817.8,97.14c0,9.13.02,18.26-.01,27.39,0,1.7-.12,3.41-.33,5.09-.11.92-.94,1.51-1.78,1.54-2.85.11-5.7.09-8.55.07-1.24-.01-2.12-.78-2.79-1.72-1.31-1.86-2.57-3.77-3.81-5.68-6.2-9.57-12.38-19.16-18.59-28.72-.93-1.43-1.92-2.83-3.01-4.14-.23-.27-1-.15-1.51-.1-.16.02-.37.41-.39.65-.16,1.69-.37,3.39-.38,5.08-.04,9.41,0,18.83-.04,28.24,0,1.69-.22,3.39-.48,5.06-.07.42-.71,1.04-1.11,1.06-3.12.16-6.24.2-9.36.25-.71.01-1.69-.92-1.75-1.58-.1-1.13-.26-2.26-.26-3.39-.02-19.4-.01-38.8,0-58.19,0-.85.05-1.71.09-2.56.06-1.16,1-2.24,2.04-2.26,2.85-.04,5.7-.06,8.55-.03,1.2.01,2.19.62,2.87,1.6,1.29,1.88,2.56,3.77,3.8,5.69,5.89,9.1,11.74,18.21,17.65,27.29,1.08,1.67,2.31,3.25,3.59,4.77.23.28,1.02.15,1.55.1.18-.02.44-.34.48-.55.21-1.39.52-2.79.53-4.19.05-9.41,0-18.83.04-28.24,0-1.7.21-3.4.32-5.1.04-.67.4-1.04,1.08-1.13,3.39-.48,6.78-.59,10.15.09.42.08.96.72,1.02,1.15.23,1.68.39,3.38.4,5.08.04,9.13.02,18.26.02,27.39Z"/>
  <path class="cls-9" d="m621.68,97.58c.51,17.03-11.83,29.34-22.68,33.12-21.49,7.49-42.63-4.67-47.15-25.49-5-23.03,10.3-41.13,30.26-43.64,24.13-3.04,40.44,17.62,39.57,35.15-.01.28,0,.57,0,.86Zm-13.25-.58c.14-6.64-2.36-12.1-6.99-16.82-8.28-8.44-25.12-8.43-32.99,3-5.07,7.38-5.73,15.46-2.38,23.55,6.12,14.79,26.41,17.9,36.76,5.91,3.9-4.53,5.73-9.72,5.59-15.65Z"/>
  <path class="cls-7" d="m838,96.9c0-8.83-.01-17.67,0-26.5,0-1.71.1-3.41.2-5.12.06-1.04,1.16-1.99,2.31-2.09.28-.02.56-.1.84-.1,5.98,0,11.97,0,17.95,0,4.03,0,7.95.85,11.79,1.86,5.71,1.49,10.19,4.96,13.76,9.61,4.1,5.34,6.26,11.48,7.08,18.08,1.05,8.42-.25,16.46-4.34,23.97-1.8,3.3-4.17,6.12-7.12,8.43-3.41,2.68-7.17,4.5-11.56,5.14-9.35,1.38-18.75,1.2-28.15,1.05-1.53-.02-2.62-1.16-2.68-2.72-.07-1.99-.1-3.99-.1-5.98-.01-8.55,0-17.1,0-25.65Zm13.34-.25s.04,0,.06,0c0,6.27-.02,12.55.01,18.82,0,1.69.99,2.76,2.53,2.74,3.13-.04,6.27-.09,9.4-.27,6.65-.38,11.26-3.77,13.69-9.91,2.86-7.23,2.73-14.51-.42-21.62-2.08-4.69-5.78-7.83-10.67-9.21-4.11-1.16-8.37-1.74-12.69-1-.57.1-1.72,1.11-1.75,1.64-.07,1.14-.16,2.27-.16,3.41-.02,5.13,0,10.27,0,15.4Z"/>
  <path class="cls-11" d="m1596.93,96.76c0-9.4-.02-18.8.02-28.2,0-1.4.28-2.8.45-4.2.08-.67.5-1,1.18-1.02,9.66-.28,19.31-.92,28.91,1.08,6.76,1.41,12.09,4.82,16.19,10.27,4.03,5.36,6.35,11.42,6.94,18.1.55,6.29.38,12.53-1.84,18.55-2.32,6.31-5.97,11.63-11.75,15.29-2.42,1.53-4.94,2.83-7.81,3.29-10.17,1.61-20.4,1.72-30.65,1.1-.41-.02-1.04-.6-1.13-1.01-.28-1.37-.49-2.79-.5-4.19-.04-9.68-.02-19.37-.02-29.05Zm12.92.12h-.04c0,4.84.03,9.68,0,14.52-.06,6.79.08,7.18,7.16,6.87,1.71-.08,3.41-.17,5.12-.27,7.07-.4,11.69-4.28,14.08-10.65,2.38-6.32,2.29-12.88,0-19.24-2.18-6.06-6.56-9.91-12.88-11.32-3.33-.74-6.72-1.19-10.17-.94-2.03.15-3.25,1.19-3.26,3.1-.03,5.98,0,11.96,0,17.94Z"/>
  <path class="cls-8" d="m486.71,131.26c-1.42,0-2.85.06-4.27-.02-1.2-.07-2.23-.64-2.71-1.76-.9-2.09-1.6-4.26-2.51-6.34-2.32-5.29-1.07-5.76-7.8-5.73-6.27.03-12.54.1-18.81-.02-2.75-.05-4.23,1.2-5.01,3.65-.09.27-.2.53-.3.8-4.51,11.73-2.01,9.52-15.37,9.21-.69-.02-1.05-.54-.94-1.18.19-1.11.3-2.27.7-3.3,7.75-19.89,15.54-39.77,23.32-59.65.31-.79.54-1.68,1.06-2.31.49-.6,1.3-1.28,2-1.32,3.12-.18,6.26-.17,9.39-.15,1.21,0,2.18.68,2.71,1.76.63,1.27,1.15,2.6,1.66,3.92,7.45,19.09,14.89,38.18,22.32,57.28.41,1.05.68,2.16.99,3.25.19.65-.66,1.9-1.31,1.9-1.71.02-3.42,0-5.13,0,0,0,0,0,0,0Zm-26.26-26.93c2.27,0,4.55.02,6.82,0,1.11-.01,2.1-1.32,1.7-2.32-2.3-5.8-4.64-11.59-6.98-17.38-.28-.7-.72-.89-1.16-.6-.23.16-.51.31-.65.54-.45.72-.93,1.44-1.23,2.23-1.98,5.02-3.93,10.05-5.86,15.09-.48,1.26.2,2.42,1.38,2.44,1.99.03,3.98,0,5.97.01Z"/>
  <path class="cls-11" d="m638.43,97.26c0-9.14-.01-18.27.01-27.41,0-1.7.16-3.41.25-5.11.03-.68,1-1.57,1.75-1.56,3.13.05,6.25.09,9.37.24.41.02,1.07.63,1.13,1.04.27,1.96.43,3.94.51,5.91.17,3.98.26,7.96.41,11.93,0,.23.24.63.4.65.51.06,1.26.18,1.53-.1,1.37-1.44,2.66-2.97,3.91-4.53,3.39-4.23,6.78-8.47,10.12-12.74,1.32-1.69,2.87-2.62,5.09-2.53,3.42.15,6.84.13,10.26.2.78.02,1.25,1.22.72,1.94-1.52,2.07-3.02,4.15-4.6,6.16-5.29,6.73-10.62,13.43-15.91,20.17-.97,1.23-.97,2.55-.02,3.93,3.4,4.93,6.84,9.84,10.26,14.76,3.91,5.62,7.82,11.25,11.73,16.87.64.92,1.34,1.78,1.14,3.06-.13.83-.63,1.13-2.84,1.15-2.28.03-4.58-.15-6.85.05-3.27.3-5.28-1.26-7.02-3.82-4.48-6.62-9.08-13.15-13.67-19.69-.81-1.15-1.75-2.21-2.68-3.27-.1-.12-.55.03-.82.11-.23.08-.58.22-.61.39-.21,1.11-.49,2.22-.5,3.34-.05,5.71,0,11.42-.05,17.13-.01,1.41-.17,2.83-.42,4.22-.08.44-.63,1.06-1.06,1.14-3.37.63-6.78.63-10.15,0-.41-.08-.96-.71-1.01-1.14-.22-1.68-.35-3.39-.36-5.09-.03-9.14-.01-18.27-.01-27.41Z"/>
  <path class="cls-8" d="m1072.63,96.69c0-8.83-.01-17.67.01-26.5,0-1.7,0-3.43.28-5.1.11-.66.89-1.42,1.56-1.73.73-.34,1.67-.28,2.52-.29,4.56-.02,9.12-.01,13.68-.01,3.15,0,6.22.47,9.3,1.18,5.42,1.25,9.18,4.53,11.45,9.41,2.65,5.69,2.73,11.6.38,17.44-1.08,2.68-2.84,4.93-5.23,6.62-1.39.98-2.88,1.83-4.26,2.83-.74.54-.9,1.45-.49,2.25,2.59,5.07,5.22,10.11,7.84,15.16,1.83,3.54,3.69,7.06,5.49,10.61.71,1.4-.23,2.67-1.94,2.72-1.14.03-2.28.06-3.42.05-8.26-.11-6.74.98-10.91-6.76-3.1-5.76-6.1-11.59-9.19-17.36-.53-.98-1.27-1.85-1.97-2.73-.09-.11-.55.04-.81.13-.22.08-.56.24-.58.39-.15,1.41-.31,2.83-.32,4.24-.04,5.7,0,11.4-.04,17.09,0,1.13-.1,2.28-.35,3.38-.11.46-.68,1.07-1.13,1.17-3.37.72-6.79.61-10.17.1-.77-.12-1.43-.89-1.48-1.84-.09-1.7-.2-3.41-.2-5.11-.02-9.12,0-18.23,0-27.35Zm13.34-15.9c-.18,9.8.32,9.61,8.09,8.44.84-.13,1.68-.28,2.48-.54,2.04-.68,3.42-2.06,3.65-4.22.15-1.37.02-2.81-.23-4.17-.27-1.47-1.35-2.58-2.62-3.16-3.16-1.43-6.53-1.67-9.92-.94-.44.09-1,.72-1.07,1.17-.27,1.66-.37,3.35-.37,3.42Z"/>
  <path class="cls-10" d="m954.44,89.6c0,5.13,0,10.27,0,15.4,0,2-.11,3.99-.06,5.99.28,10.04-6.85,20.84-20.73,21.87-6.79.5-13.02-1.18-18.26-5.75-3.1-2.7-5.21-6.03-5.91-10.13-.43-2.53-1.06-5.07-1.08-7.61-.14-14.54-.13-29.08-.14-43.63,0-1.5,1.19-2.56,2.74-2.64.57-.03,1.14-.05,1.71-.04,9.28.06,8.87-1.01,8.85,8.67-.02,10.27-.03,20.54.01,30.8.01,3.13.04,6.28.33,9.4.44,4.69,3.79,7.69,8.56,7.88,1.13.04,2.28-.05,3.4-.21,3.39-.51,6.57-3.68,6.82-6.77.21-2.55.42-5.12.43-7.67.05-11.69.01-23.39.03-35.08,0-1.71.03-3.43.29-5.11.12-.77.72-1.55,1.71-1.66.84-.1,1.69-.24,2.53-.23,9.8.07,8.69-1.11,8.77,8.56.05,5.99,0,11.98,0,17.97Z"/>
  <path class="cls-7" d="m1162.14,97.2c0-9.41,0-18.81,0-28.22,0-1.14.08-2.27.15-3.41.06-1.11,1.08-2.22,2.08-2.31.85-.07,1.7-.19,2.55-.19,9.41-.01,18.81-.01,28.22,0,.85,0,1.75,0,2.54.25.76.25,1.58.71,1.6,1.74.06,2.84.11,5.68.12,8.53,0,1.01-1.17,2.13-2.23,2.18-1.71.08-3.41.17-5.12.18-3.99.03-7.98,0-11.97.03-.85,0-1.69.19-2.54.22-1.05.04-1.77.91-1.8,1.55-.14,2.83-.1,5.68.08,8.5.05.74.81,1.51,1.79,1.53,4.84.1,9.68.14,14.51.27,1.98.05,3.96.21,5.92.45.41.05,1.05.68,1.08,1.08.2,2.54.34,5.09.35,7.64,0,2.74-.77,3.49-3.59,3.52-5.13.05-10.26.02-15.39.05-1.14,0-2.29.05-3.4.28-.48.1-1.21.7-1.22,1.09-.13,4.83-.17,9.67-.14,14.5,0,.43.62,1.12,1.07,1.23,1.09.27,2.25.36,3.38.37,4.85.04,9.69,0,14.54.05,1.11.01,2.25.19,3.33.48.44.12.85.71,1.08,1.18.24.49.34,1.1.34,1.65-.01,10.43,1.41,9.75-9.44,9.74-7.41,0-14.82,0-22.23-.01-1.13,0-2.27-.12-3.4-.2-1-.07-2.04-1.2-2.09-2.31-.08-1.71-.16-3.41-.16-5.12-.02-8.84,0-17.67,0-26.51Z"/>
  <path class="cls-7" d="m1542.87,96.75c0-8.84-.01-17.67.01-26.51,0-1.71,0-3.43.28-5.1.11-.66.93-1.3,1.57-1.75.42-.29,1.09-.29,1.65-.29,10.26-.01,20.52,0,30.78.02.55,0,1.16.1,1.63.36.45.25,1.04.75,1.08,1.18.21,2.26.34,4.54.34,6.81,0,3.81-.6,4.42-4.46,4.46-4.84.06-9.69,0-14.54.05-1.13.01-2.28.13-3.37.39-.46.11-1.08.63-1.17,1.07-.65,3.06-.81,6.16.09,9.2.13.43.75.97,1.19,1.01,2.54.21,5.1.33,7.65.4,4.27.12,8.54.13,12.8.3.85.03,1.59.76,1.62,1.68.08,2.84.05,5.68.05,8.52,0,.28-.01.63-.17.83-.35.43-.76,1.03-1.22,1.1-1.4.22-2.83.29-4.25.31-5.13.05-10.26.04-15.39.1-1.68.02-2.63.98-2.72,2.58-.03.57-.09,1.14-.08,1.71.35,15.44-2.8,12.85,12.81,13.12,2.85.05,5.7.06,8.54.14,1.45.04,2.59,1.24,2.57,2.8-.04,2.84-.14,5.68-.33,8.51-.03.42-.63.92-1.08,1.18-.47.26-1.08.38-1.62.38-10.26.03-20.52.05-30.78.02-2.52,0-3.42-1.02-3.46-3.77-.05-3.99-.03-7.98-.04-11.97,0-6.27,0-12.54,0-18.81Z"/>
  <path class="cls-9" d="m1253.16,112.82c-.13,9.99-5.45,16.79-14.09,19.1-4.22,1.13-8.37,1.27-12.66.21-7.2-1.77-11.93-6.32-15.22-12.7-.31-.6-.1-2.02.43-2.35,2.64-1.66,5.29-3.31,7.95-4.93.79-.48,1.64-.42,2.27.26,1.55,1.67,2.94,3.48,4.56,5.07,2.19,2.16,4.95,2.71,7.92,2.19,2.41-.42,4.13-1.79,5.13-4.05.48-1.09.53-2.17.19-3.31-.5-1.68-1.35-3.17-2.62-4.35-2.51-2.32-5.1-4.55-7.64-6.85-3.17-2.87-6.39-5.68-9.44-8.68-2.45-2.41-4.33-5.23-5.51-8.55-2.12-5.96-.92-11.28,3.02-15.98,6.31-7.53,17.41-8.57,25.68-3.5,2.69,1.65,5.05,3.69,7.12,6.09,1.12,1.29,1.14,2.51-.14,3.7-1.87,1.75-3.78,3.47-5.7,5.16-1.38,1.22-2.26,1.16-3.7-.11-1.49-1.31-2.83-2.88-4.52-3.85-2.3-1.32-4.86-1.58-7.34-.14-1.68.97-2.5,3.65-1.44,5.21.79,1.17,1.64,2.34,2.68,3.28,3.81,3.44,7.77,6.71,11.56,10.17,2.52,2.3,5.04,4.65,7.23,7.25,3.04,3.6,4.53,7.88,4.26,11.66Z"/>
  <path class="cls-9" d="m989.42,61.37c4.97-.24,9.22,1.3,12.99,4.05,2.06,1.5,3.83,3.39,5.65,5.18,1.29,1.27,1.22,2.32-.16,3.6-1.87,1.75-3.77,3.48-5.7,5.17-1.21,1.06-2.46.97-3.72-.18-1.26-1.15-2.39-2.51-3.8-3.41-2.23-1.42-4.69-1.97-7.33-.89-2.21.91-3.3,3.67-2.06,5.66.59.95,1.24,1.93,2.06,2.68,4.02,3.62,8.17,7.11,12.16,10.77,2.52,2.3,5.03,4.65,7.2,7.27,3.21,3.87,4.59,8.46,4.23,13.54-.56,7.89-4.57,13.44-11.8,16.36-4.53,1.83-9.32,2.31-14.27,1.16-5.23-1.21-9.51-3.75-12.78-7.95-1.22-1.56-2.17-3.33-3.23-5.02-.37-.59-.08-1.91.52-2.29,2.64-1.66,5.28-3.34,7.97-4.92.72-.42,1.65-.47,2.32.28,1.51,1.69,2.89,3.52,4.52,5.09,2.47,2.39,5.53,2.76,8.76,1.93,3.86-.99,5.79-5.45,3.77-8.84-.72-1.21-1.62-2.35-2.64-3.32-2.06-1.97-4.25-3.79-6.38-5.69-2.98-2.66-6.04-5.22-8.88-8.02-1.81-1.79-3.5-3.79-4.84-5.95-5.67-9.16-2.41-19.59,7.35-24.45,2.55-1.27,5.32-2.07,8.06-1.82Z"/>
  <path class="cls-6" d="m1504.31,103.47c0-7.98.02-15.96-.01-23.93,0-2.48-1.02-3.42-3.68-3.57-2.27-.13-4.55-.15-6.82-.36-.42-.04-1.04-.71-1.11-1.16-.49-3.38-.68-6.77.14-10.14.06-.26.24-.54.45-.71.2-.16.5-.28.76-.28,11.1-.05,22.2-.09,33.31-.1,1.18,0,2.22.99,2.32,2.06.08.85.21,1.7.21,2.54,0,7.68.79,8.25-7.75,8.12-1.12-.02-2.27.2-3.35.49-.48.13-1.14.69-1.2,1.12-.22,1.69-.3,3.4-.3,5.11-.02,13.68,0,27.35-.03,41.03,0,1.98-.12,3.97-.29,5.95-.08.95-.91,1.52-1.74,1.53-3.12.03-6.24-.09-9.35-.16-.68-.02-1.06-.41-1.12-1.09-.14-1.41-.37-2.81-.38-4.22-.04-7.41-.02-14.82-.02-22.22h-.03Z"/>
  <path class="cls-10" d="m1033,103.29c0-7.43.01-14.85-.01-22.28,0-1.14-.06-2.3-.3-3.4-.1-.45-.72-1-1.19-1.1-1.38-.29-2.81-.5-4.22-.52-6.39-.08-6.35.08-6.28-6.91.01-1.14.05-2.28.1-3.42.08-1.68.93-2.54,2.68-2.54,10.85.01,21.7.05,32.55.1,1.13,0,2.17,1.06,2.25,2.12.06.85.16,1.7.16,2.56-.05,7.7.92,8.22-7.77,8.09-.57,0-1.14.03-1.71.06-1.58.09-2.75,1.14-2.8,2.56-.06,2-.11,4-.11,5.99,0,12.85,0,25.7-.01,38.56,0,1.99-.06,3.99-.24,5.98-.07.83-.54,1.69-1.48,1.85-3.39.57-6.78.56-10.17-.01-.67-.11-1.02-.48-1.07-1.17-.11-1.41-.32-2.83-.32-4.24-.03-7.43-.02-14.85-.02-22.28h0Z"/>
  <path class="cls-2" d="m508.2,97.24c0-9.12-.01-18.23,0-27.35,0-1.7.14-3.4.22-5.1.03-.68.99-1.58,1.69-1.63.57-.04,1.14-.11,1.7-.11,10.39.06,9.73-1.27,9.72,9.51,0,12.53,0,25.07,0,37.6,0,1.99.09,3.98.17,5.97.04,1.02,1.12,1.97,2.31,1.99,3.99.06,7.97.08,11.96.15.85.02,1.73.08,2.52.34.46.16,1.03.71,1.11,1.17.64,3.37.71,6.77-.06,10.14-.1.44-.69.89-1.15,1.11-.49.24-1.1.29-1.66.29-8.26.02-16.52.04-24.78.01-2.94-.01-3.68-.69-3.72-3.34-.06-3.99-.04-7.98-.04-11.96,0-6.27,0-12.53,0-18.8Z"/>
  <path class="cls-2" d="m1300.85,96.82c0-8.84-.01-17.68,0-26.51,0-1.71-.02-3.43.25-5.11.11-.68.88-1.67,1.48-1.78,3.37-.6,6.79-.61,10.18.02.45.08,1.08.7,1.14,1.14.24,1.68.37,3.39.37,5.09.03,13.97,0,27.94.02,41.91,0,1.71.04,3.42.23,5.12.05.46.62.98,1.09,1.23.47.25,1.11.27,1.67.28,2.28.04,4.56.07,6.84.05,9.64-.05,8.84-.33,8.82,8.74,0,.84,0,1.78-.35,2.51-.33.67-1.07,1.2-1.75,1.6-.45.26-1.11.24-1.67.24-8.27.01-16.53.03-24.8-.01-2.56-.01-3.43-1-3.5-3.72-.05-1.99-.03-3.99-.03-5.99,0-8.27,0-16.54,0-24.8Z"/>
  <path class="cls-2" d="m1480.24,97.36c0,9.42.02,18.85-.02,28.27,0,1.4-.21,2.82-.49,4.2-.09.44-.69,1.02-1.14,1.11-3.38.67-6.78.6-10.17.04-.43-.07-.96-.62-1.11-1.06-.27-.79-.39-1.67-.39-2.51-.02-20.28-.01-40.56,0-60.83,0-.57.12-1.13.17-1.7.07-.72.94-1.63,1.63-1.69.28-.03.57-.09.85-.09,11.63-.04,10.65-1.61,10.67,10.27.01,8,0,15.99,0,23.99Z"/>
  <path class="cls-5" d="m1143.38,96.91c0,9.14.01,18.29-.01,27.43,0,1.71-.13,3.42-.22,5.12-.04.76-.93,1.67-1.68,1.66-3.13-.01-6.25-.03-9.37-.16-.41-.02-.98-.59-1.15-1.02-.29-.78-.44-1.66-.45-2.49-.02-20-.02-40.01-.01-60.01,0-.85.14-1.7.22-2.55.07-.73.95-1.65,1.67-1.66,2.85-.04,5.71-.06,8.56-.07,1.21,0,2.27.94,2.3,2.03.06,2,.13,4,.13,6,.01,8.57,0,17.15,0,25.72Z"/>
  <path class="cls-8" d="m267.92,162.17c.39-.4.72-.9,1.19-1.17,5.36-3.08,10.77-6.07,16.57-8.29.54,11.7-.09,23.33-1.27,34.97-1.9,18.74-5.73,37.13-9.64,55.51-.28,1.34-1.08,2.57-1.69,3.82-.07.14-.5.09-.86.15,1.2-7.08,1.11-14.21,1.26-21.33.32-14.83,0-29.63-1.96-44.36-.87-6.49-1.89-12.97-3.6-19.3Z"/>
  <path class="cls-5" d="m1346.3,97.07c0-9.13-.02-18.27.02-27.4,0-1.69.19-3.4.44-5.07.06-.43.64-1.03,1.07-1.11,3.37-.65,6.78-.58,10.15.01.4.07.88.8.98,1.29.22,1.11.29,2.26.29,3.4.02,19.41.02,38.81,0,58.22,0,1.13-.12,2.28-.37,3.38-.11.48-.69,1.19-1.09,1.21-3.12.13-6.25.15-9.38.13-.92,0-1.65-.71-1.76-1.55-.24-1.68-.32-3.4-.32-5.1-.03-9.13-.01-18.27-.01-27.4Z"/>
  <path class="cls-2" d="m731.46,97.22c0-8.85,0-17.7,0-26.55,0-1.71.07-3.42.14-5.13.05-1.15,1.03-2.28,2.06-2.3,2.85-.07,5.69-.13,8.54-.11,1.55,0,2.53,1.11,2.6,2.76.06,1.42.09,2.85.09,4.28,0,17.98,0,35.97,0,53.95,0,1.71,0,3.44-.28,5.11-.11.67-.9,1.65-1.51,1.76-3.38.58-6.8.62-10.19-.05-.44-.09-1.01-.74-1.09-1.21-.23-1.4-.34-2.83-.35-4.25-.03-9.42-.01-18.84-.01-28.26Z"/>
  <path class="cls-1" d="m515.78,188.59c0-6.57-.03-13.14.05-19.7,0-.74.53-1.57,1.02-2.19.65-.8,3.28-.82,4.01-.08.99,1.01,1.98,2.04,2.77,3.2,5.11,7.57,10.17,15.18,15.24,22.77.95,1.42,1.83,2.89,2.82,4.29.45.63.85,1.37,1.89,1.36.62,0,1.11-.66,1.11-1.94-.02-7.71-.05-15.42-.05-23.14,0-1.71.02-3.43.23-5.13.1-.81.69-1.63,1.64-1.7.8-.06,1.63.1,2.43.23.24.04.55.27.64.48.22.52.45,1.09.45,1.63.03,13.14.04,26.27.04,39.41,0,.86-.25,1.68-1.08,2.16-.92.53-3.53.45-4.09-.17-.76-.84-1.54-1.7-2.17-2.64-5.1-7.58-10.17-15.18-15.26-22.76-1.11-1.65-2.25-3.29-3.48-4.86-.26-.34-.92-.44-1.41-.5-.71-.09-1.09.3-1.15.97-.07.84-.23,1.69-.23,2.53.01,7.71.07,15.42.06,23.13,0,1.12-.17,2.26-.44,3.35-.24.95-1.18,1.07-2.02,1.28-.99.25-2.73-.64-2.85-1.45-.16-1.12-.27-2.26-.27-3.4-.03-5.71-.01-11.43-.01-17.14.03,0,.06,0,.09,0Z"/>
  <path class="cls-1" d="m1562.56,188.44c0-6.57-.02-13.13.02-19.7,0-.83.19-1.68,1.02-2.23.81-.53,3.46-.53,4.05.15.93,1.07,1.85,2.17,2.64,3.34,5.57,8.29,11.1,16.61,16.67,24.9.78,1.16,1.7,2.24,2.61,3.31.11.13.55.01.83-.06.23-.06.58-.18.62-.34.18-.82.4-1.66.4-2.49,0-7.71-.06-15.42-.06-23.12,0-1.42.14-2.84.26-4.26.09-1.01,1.28-1.84,2.51-1.81,1.24.03,2.45.87,2.56,1.8.1.85.25,1.7.25,2.54.01,12.28,0,24.55,0,36.83,0,.57,0,1.19-.22,1.68-.22.48-.64.97-1.11,1.22-1.49.79-3.91.42-4.72-.7-1.82-2.55-3.62-5.13-5.37-7.73-5.1-7.57-10.18-15.15-15.25-22.74-.4-.59-.77-.74-1.37-.61-.65.14-.94.44-.92,1.18.03,1.14,0,2.28,0,3.41.01,7.71.03,15.42.04,23.12,0,.85-.08,1.71-.15,2.56-.08.99-1.13,1.76-2.5,1.86-1.26.09-2.63-.69-2.66-1.58-.09-2.85-.16-5.7-.19-8.55-.03-4,0-7.99,0-11.99h.06Z"/>
  <path class="cls-3" d="m494.96,188.65c0,6.55.01,13.11-.01,19.66,0,1.56-1.09,2.33-2.89,2.32-1.21,0-2.28-.32-2.99-1.31-1.82-2.55-3.6-5.13-5.34-7.73-4.61-6.86-9.18-13.73-13.78-20.59-.31-.47-.79-.83-1.09-1.3-.39-.6-.81-.62-1.48-.48-.66.13-1.05.31-1.08,1.05-.07,1.41-.2,2.82-.21,4.23-.05,7.98-.06,15.95-.11,23.93,0,1.42-1.44,2.36-3.04,2.12-1.23-.19-2.19-1.1-2.21-2.18-.05-3.99-.11-7.98-.1-11.96.03-9.4.08-18.8.15-28.2,0-1.02,1.17-1.94,2.35-2.03,1.5-.12,2.85.18,3.78,1.45,1.01,1.38,1.98,2.78,2.93,4.2,5.22,7.81,10.43,15.64,15.65,23.45.63.94,1.34,1.83,2.01,2.74.41.56.9.61,1.46.13.19-.16.5-.35.51-.53.07-2.84.1-5.69.12-8.54.05-6.84.06-13.67.14-20.51.02-1.8,1.83-2.9,3.65-2.26.48.17,1.1.6,1.21,1.03.28,1.08.42,2.23.43,3.36.04,5.98.02,11.97.02,17.95h-.06Z"/>
  <path class="cls-4" d="m589.28,165.49c9.04-.15,15.79,5.26,18.48,13.86,1.83,5.85,1.87,11.79.11,17.68-.99,3.31-2.67,6.21-5.03,8.8-7.54,8.27-24.36,7.8-30.54-4.41-1.29-2.54-2.45-5.18-2.5-8.09-.07-3.41-.13-6.83.08-10.22.24-3.79,1.83-7.17,4.07-10.18,3.84-5.17,9.06-7.61,15.33-7.44Zm-14.1,22.5c-.25,4.03.41,7.92,2.39,11.52,3.02,5.47,9.29,7.98,15.35,6.25,5.57-1.59,8.45-5.61,9.69-10.91.98-4.2.91-8.52,0-12.74-.35-1.64-1.02-3.27-1.83-4.75-2.56-4.7-6.62-6.81-11.97-6.72-5.42.09-9.18,2.67-11.6,7.37-1.6,3.11-2.23,6.45-2.04,9.98Z"/>
  <path class="cls-4" d="m1542.99,189.25c.05,3.7-.64,7.88-2.65,11.77-6.58,12.76-21.73,12.44-29.23,6.33-2.98-2.43-4.94-5.54-6.14-9.07-2.28-6.69-2.28-13.46.18-20.1,1.73-4.68,4.72-8.38,9.26-10.74,9.26-4.82,20.93-1.22,25.79,7.97,2.19,4.15,2.83,8.61,2.8,13.85Zm-5.63-.05c.02-3.41-.13-6.22-1.17-8.97-2.77-7.27-7.58-10.28-15.28-9.45-2.37.25-4.39,1.2-6.16,2.72-2.23,1.91-3.76,4.32-4.56,7.12-1.44,5.05-1.53,10.16-.1,15.23,1.04,3.69,3,6.86,6.43,8.74,7.51,4.11,15.6.9,18.87-5.95,1.51-3.16,2.17-6.48,1.97-9.43Z"/>
  <path class="cls-4" d="m1316.09,188.41c.19,3.41-.47,6.76-1.67,9.98-3.07,8.23-9.27,13.06-18.14,13.02-7.8-.04-14.3-3.07-17.89-12.08-3.08-7.73-2.92-15.65.66-23.23,5.86-12.4,20.25-12.59,27.69-7.77,3.49,2.26,5.87,5.4,7.37,9.17,1.37,3.46,2.17,7.08,1.98,10.91Zm-34.08-.49c-.01,4.67.72,8.02,2.36,11.18,2.84,5.48,7.54,7.48,12.61,7.24,5.64-.27,9.67-3.34,11.77-8.59,2.43-6.09,2.5-12.36.06-18.42-2.63-6.53-7.19-8.64-12.49-8.7-6.01-.08-10.38,3.04-12.59,8.52-1.19,2.93-1.97,5.98-1.72,8.78Z"/>
  <path class="cls-1" d="m843.26,188.02c0-5.7,0-11.39,0-17.09,0-.85.13-1.7.21-2.55.11-1.07,1.16-2.17,2.24-2.18,7.11-.05,14.23-.07,21.34-.09,1,0,1.86,1.11,1.94,2.39.1,1.72-.76,2.78-2.39,2.8-3.42.04-6.84.02-10.25.06-1.7.02-3.41.11-5.11.21-1.02.06-2.06,1.11-2.11,2.24-.11,2.56-.22,5.12-.21,7.68.01,2.65.88,3.47,3.59,3.53,3.99.08,7.97.1,11.96.19,1.42.03,2.43,1.39,2.25,2.98-.1.84-.4,1.8-1.36,1.85-3.4.19-6.81.28-10.22.33-5.53.09-6.29,0-6.26,6.27,0,1.71,0,3.42.05,5.13.08,2.55,1.02,3.47,3.67,3.51,5.12.08,10.25.08,15.38.18,1.74.03,2.72,1.94,1.95,3.76-.19.46-.65.9-1.1,1.12-.49.24-1.11.27-1.67.27-6.55.03-13.1.06-19.65.03-3.4-.01-4.16-.73-4.22-3.83-.05-2.85-.02-5.7-.03-8.55,0-3.42,0-6.84,0-10.25h0Z"/>
  <path class="cls-3" d="m1379.11,182.27c0-4.56-.03-9.12.02-13.67.02-1.95,1.63-2.92,3.59-2.2.47.17,1.08.58,1.2,1.01.31,1.07.52,2.21.53,3.32.05,6.55,0,13.11.04,19.66.01,2.28,0,4.57.3,6.82.86,6.48,5.6,9.45,11.39,9.06,5.02-.33,8.6-2.28,10.06-8.75.37-1.64.38-3.39.4-5.09.04-6.55,0-13.11.03-19.66,0-1.7.14-3.4.29-5.1.09-1.05,1.02-1.32,1.82-1.46,1.66-.28,3.04.66,3.16,2,.03.28.09.57.09.85.02,8.55.03,17.09.07,25.64.01,2.91-.73,5.65-1.8,8.3-1.48,3.65-4.25,6.11-7.9,7.33-4.72,1.59-9.6,1.61-14.27-.13-4.95-1.84-7.66-5.78-8.59-10.87-.4-2.23-.45-4.53-.51-6.81-.08-3.42-.02-6.84-.02-10.26.03,0,.06,0,.09,0Z"/>
  <path class="cls-3" d="m1164.47,187.67c0-6.28-.02-12.56.02-18.84,0-1.57,1.16-2.72,2.66-2.72,6.85-.02,13.71,0,20.56.02,1.44,0,2.42,1.34,2.21,3-.1.84-.38,1.83-1.38,1.89-3.12.18-6.25.21-9.38.32-2.56.09-5.12.18-7.67.39-.39.03-.95.66-1.05,1.1-.83,3.64-.78,7.32-.07,10.97.08.42.79.99,1.24,1.01,2.85.16,5.7.19,8.55.27,2,.06,3.99.11,5.99.19.7.03,1.61,1.64,1.49,2.81-.09.84-.19,1.87-1.26,1.95-2.83.19-5.68.23-8.52.34-1.99.08-3.98.18-5.97.26-1.07.04-1.52.9-1.67,1.65-.27,1.39-.31,2.83-.3,4.26.05,9.48-1,8.79,8.67,8.8,3.43,0,6.85.03,10.28.08,1.71.03,2.76,1.95,2.04,3.79-.18.47-.67.93-1.13,1.15-.49.23-1.12.22-1.68.22-6.85,0-13.71.02-20.56-.02-2.09-.01-3.06-1.01-3.1-3.18-.07-4-.07-8-.09-11.99-.01-2.57,0-5.14,0-7.71.05,0,.09,0,.14,0Z"/>
  <path class="cls-1" d="m1009.63,187.49c-.33-.72-.6-1.55-1.05-2.25-3.4-5.27-6.87-10.5-10.25-15.78-.43-.68-.55-1.57-.74-2.38-.03-.14.31-.45.53-.55,1.78-.79,3.69-.51,4.62.84,2.59,3.75,5.08,7.57,7.65,11.33.8,1.17,1.68,2.29,2.65,3.31.23.24,1.18.22,1.42-.04,1.14-1.24,2.23-2.55,3.18-3.94,2.42-3.53,4.7-7.15,7.14-10.65.89-1.27,2.36-1.42,3.85-1.23,1.02.13,1.69.93,1.34,1.7-.23.51-.35,1.09-.64,1.56-.74,1.21-1.64,2.34-2.33,3.58-2.86,5.2-7.31,9.46-9.1,15.3,2.3,5.58,6.41,10.04,9.46,15.16,1.15,1.94,2.34,3.87,3.39,5.86.3.58-.22,1.02-.92,1.16-2.12.42-3.92.12-5.21-1.88-2.31-3.6-4.68-7.16-7.07-10.71-.95-1.41-1.99-2.77-3.1-4.06-.24-.28-1.17-.38-1.39-.16-.81.78-1.53,1.68-2.16,2.62-2.86,4.26-5.67,8.56-8.54,12.81-1.12,1.66-2.84,1.66-4.59,1.42-.83-.11-1.45-1.22-1.01-1.9,2.78-4.31,5.59-8.59,8.37-12.89,1.39-2.15,2.77-4.31,4.09-6.5.27-.46.25-1.09.38-1.72Z"/>
  <path class="cls-4" d="m670.79,207.46c.07-.22.38-1.32.79-2.38,4.43-11.41,8.87-22.82,13.34-34.22.52-1.32,1.18-2.58,1.87-3.82.65-1.16,3.97-1.12,4.6.02.54,1,1.08,2.01,1.49,3.06,4.76,12.2,9.51,24.4,14.23,36.62.3.78.46,1.66.43,2.49-.02.41-.54,1.06-.95,1.17-2.39.63-3.85-.1-4.73-2.26-1.07-2.64-2.16-5.27-3.14-7.94-.81-2.22-2.43-2.99-4.62-2.97-.85,0-1.71-.04-2.57-.01-12.77.33-10.1-2.27-15.01,10.21-.21.53-.4,1.07-.68,1.56-.61,1.08-1.6,1.53-2.82,1.59-1.99.1-2.97-.76-2.23-3.13Zm18.26-32.94c-2.42,5.65-4.43,10.53-5.69,15.71-.17.68.1,1.15.75,1.29,3.32.73,6.64.71,9.96.01.64-.13.93-.6.73-1.28-1.51-5.05-3.18-10.03-5.75-15.74Z"/>
  <path class="cls-3" d="m1237.57,205.75c3.26,1.01,6.89.77,10.51-.5,3.92-1.37,5.93-6.18,4.01-9.84-.83-1.56-2.16-2.69-3.81-3.27-2.14-.77-4.37-1.3-6.54-2.01-1.89-.62-3.85-1.13-5.6-2.06-3.53-1.87-5.46-4.9-5.63-8.96-.3-7.33,4.22-12.7,11.46-13.43,4.29-.43,8.54-.36,12.61,1.41,1.67.73,2.47,2.35,1.77,4.18-.16.42-.84,1-1.19.95-2.24-.37-4.43-1.01-6.67-1.35-2.55-.38-5.12-.36-7.64.36-3.6,1.02-6.72,6.48-3.44,10.38.88,1.04,2.1,1.98,3.36,2.48,2.38.94,4.91,1.48,7.35,2.27,1.62.53,3.27,1.07,4.76,1.88,3.22,1.74,5.14,4.45,5.36,8.2.05.85.09,1.71.07,2.56-.14,5.32-2.83,9.51-8.75,11.34-5.6,1.72-11.27,1.36-16.82-.52-1.4-.48-2.24-1.76-2.17-3.31.03-.81.94-1.89,1.53-1.78,1.68.3,3.36.62,5.47,1.02Z"/>
  <path class="cls-4" d="m954.23,188.02c0-5.7,0-11.39,0-17.09,0-.85.11-1.7.18-2.55.08-1.05,1.15-2.15,2.22-2.15,7.12-.02,14.23-.04,21.35,0,1.58,0,2.53,2.51,1.52,3.97-.28.41-.83.88-1.26.89-4.26.14-8.53.16-12.8.27-1.41.04-2.84.17-4.22.44-.46.09-1.08.75-1.13,1.2-.24,2.25-.46,4.52-.41,6.78.1,4.52-.65,5.26,5.23,5.31,3.42.03,6.83.06,10.25.11,1.03.02,2.18,1.01,2.45,2.03.28,1.03-.52,2.7-1.39,2.76-2.26.16-4.52.35-6.78.36-10.91.04-9.75-.61-9.78,10.45,0,.85.1,1.7.19,2.55.1.91.56,1.64,1.5,1.69,3.12.16,6.24.23,9.37.32,2.84.08,5.69.14,8.53.23.88.03,1.87,1.47,1.81,2.54-.08,1.21-.95,2.3-2.04,2.31-7.4.04-14.8.07-22.2.05-1.5,0-2.49-1.13-2.51-2.8-.06-3.7-.06-7.4-.08-11.11-.01-2.85,0-5.7,0-8.55h0Z"/>
  <path class="cls-3" d="m1630.33,165.45c3.67.13,7.09.24,10.28,1.79,1.28.62,1.84,1.71,1.61,3.56-.13,1.01-.87,1.74-1.63,1.49-4.12-1.36-8.31-1.96-12.64-1.37-2.43.33-4.2,1.61-5.39,3.75-1.77,3.19-.68,7.23,2.62,8.74,2.32,1.06,4.81,1.74,7.21,2.6,2.14.77,4.4,1.33,6.38,2.4,3.2,1.74,5.03,4.56,5.21,8.3.11,2.29.13,4.57-.82,6.73-1.59,3.65-4.41,5.98-8.17,6.98-3.59.96-7.28,1.5-11.01.64-1.94-.45-3.92-.76-5.8-1.39-1.05-.35-1.81-1.27-1.88-2.59-.07-1.23.85-2.52,1.82-2.33,2.24.43,4.49.85,6.72,1.33,3.2.7,6.25.08,9.24-.96,2.62-.91,4.34-3.67,4.36-6.74.02-2.94-1.56-4.9-4.03-6.02-2.06-.93-4.33-1.42-6.5-2.12-1.62-.52-3.3-.93-4.86-1.6-4.85-2.08-6.94-5.45-6.82-10.74.15-6.54,4.44-11.34,10.92-12.19,1.13-.15,2.27-.2,3.17-.28Z"/>
  <path class="cls-1" d="m825.83,167.56c-.14.76-.19,1.63-.47,2.41-4.54,12.57-9.09,25.13-13.68,37.68-.28.78-.82,1.48-1.3,2.17-.73,1.05-4.08.98-4.67-.08-.28-.49-.54-1-.74-1.53-4.58-12.55-9.15-25.11-13.71-37.67-.29-.79-.41-1.65-.61-2.48-.2-.83.39-1.63,1.33-1.81,1.53-.3,3.29.28,3.72,1.34.85,2.11,1.67,4.23,2.43,6.37,2.46,6.97,4.86,13.96,7.34,20.93.47,1.33,1.19,2.57,1.84,3.83.1.19.44.42.6.37.51-.14,1.26-.27,1.42-.63.84-1.8,1.58-3.64,2.25-5.51,2.38-6.7,4.71-13.41,7.07-20.12.57-1.61,1.17-3.2,1.81-4.79.65-1.61,2.39-2.35,4.24-1.72.43.15.7.76,1.12,1.25Z"/>
  <path class="cls-1" d="m659.33,169.26c.14-.66.06.21-.22,1-4.56,12.61-9.14,25.22-13.73,37.82-.69,1.91-2.13,2.85-3.93,2.45-.77-.17-1.67-.64-2.09-1.26-.63-.91-.9-2.08-1.3-3.15-4.22-11.52-8.45-23.04-12.62-34.58-.48-1.32-.7-2.75-.85-4.16-.03-.33.64-.92,1.1-1.08,1.41-.48,3.39.12,3.8,1.13.85,2.11,1.66,4.25,2.43,6.39,2.78,7.79,5.54,15.6,8.33,23.39.28.78.71,1.51,1.14,2.22.07.12.54,0,.83-.03.26-.04.67-.06.73-.21.86-2.11,1.72-4.22,2.49-6.36,2.99-8.33,5.93-16.67,8.92-24.99.47-1.3,1.69-1.82,3.56-1.71.8.05,1.73.97,1.4,3.13Z"/>
  <path class="cls-1" d="m1057.95,191.45c0-4.84.02-9.68-.01-14.51,0-1.13-.14-2.27-.24-3.4-.07-.79-1.49-2.03-2.39-2.06-3.12-.1-6.25-.17-9.37-.28-1-.04-1.95-1.33-1.85-2.47.11-1.33.9-2.43,1.86-2.53.57-.06,1.13-.16,1.7-.16,8.82,0,17.64-.02,26.46.02.82,0,1.81.13,2.41.6.55.43.78,1.37.98,2.13.24.93-.31,1.82-1.04,2.09-1.03.38-2.22.41-3.35.45-2.27.09-4.55.05-6.83.12-1.58.05-2.54,1.04-2.58,2.72-.08,3.41-.11,6.83-.13,10.24-.05,7.97-.06,15.93-.13,23.9-.02,1.7-1.97,2.74-3.83,2.03-.47-.18-1.06-.63-1.18-1.07-.29-1.07-.44-2.21-.45-3.33-.05-4.84-.02-9.68-.02-14.51h-.01Z"/>
  <path class="cls-4" d="m1442.67,191.59c0-5.14,0-10.28,0-15.42,0-.85-.1-1.71-.19-2.56-.1-1-1.22-2.04-2.35-2.08-3.13-.12-6.28-.1-9.4-.35-.63-.05-1.47-.93-1.69-1.59-.24-.72,0-1.69.28-2.46.16-.43.83-.91,1.29-.94,2.28-.13,4.56-.14,6.85-.14,7.42.02,14.84.06,22.27.12,1.09,0,2.15,1.05,2.25,2.09.17,1.74-.67,2.94-2.16,2.98-2.57.07-5.14.05-7.71.13-.84.03-1.71.15-2.5.42-.44.15-1.02.65-1.08,1.06-.23,1.68-.39,3.39-.4,5.09-.04,8.57,0,17.13-.03,25.7,0,1.71-.06,3.42-.24,5.12-.09.87-.76,1.55-1.68,1.59-.81.03-1.68-.06-2.42-.35-.4-.15-.83-.83-.84-1.28-.06-5.7-.04-11.41-.04-17.12-.07,0-.14,0-.21,0Z"/>
  <path class="cls-4" d="m731.42,190.99c0-4.29.04-8.57,0-12.86-.07-6.7.53-6.82-6.37-6.8-1.14,0-2.29,0-3.43-.01-.57,0-1.14-.05-1.71-.08-1.49-.09-2.42-1.27-2.17-2.97.12-.8.34-1.69,1.4-1.88.56-.1,1.11-.28,1.67-.28,9.14-.02,18.28-.02,27.42,0,1.69,0,2.57.95,2.66,2.62.06,1.21-.83,2.41-1.83,2.49-.57.04-1.13.11-1.7.11-1.71.02-3.43,0-5.14.02-4.41.08-5.39.29-5.37,5.44.03,8.28.01,16.57,0,24.85,0,2.28-.07,4.57-.14,6.85-.04,1.17-.95,1.92-2.29,1.97-1.75.07-2.79-.76-2.87-2.34-.07-1.43-.11-2.85-.11-4.28-.01-4.29,0-8.57,0-12.86Z"/>
  <path class="cls-4" d="m1335.11,187.99c0-5.71-.02-11.42.02-17.13,0-1.12.25-2.24.4-3.36.12-.86,1.43-1.5,2.83-1.28.82.13,1.72.4,1.85,1.42.17,1.41.3,2.83.3,4.25.03,8.56,0,17.13.03,25.69,0,1.99.17,3.98.26,5.97.05,1.09.93,1.52,1.69,1.55,4.27.16,8.55.15,12.83.27,1.4.04,2.81.23,4.2.42,1.02.14,1.78,2.83,1.02,3.68-.36.4-.88.8-1.39.92-.82.19-1.7.2-2.55.2-5.99,0-11.99.02-17.98-.03-2.57-.02-3.44-.96-3.46-3.73-.04-6.28-.01-12.56-.01-18.84h-.02Z"/>
  <path class="cls-4" d="m918.07,190.54c0-3.71,0-7.43,0-11.14,0-1.43,0-2.86-.03-4.28-.07-2.86-.81-3.69-3.39-3.76-2.85-.08-5.71-.12-8.56-.2-1.1-.03-1.85-1.07-1.8-2.42.05-1.34.85-2.47,1.78-2.55.28-.02.57-.09.85-.09,9.43.01,18.85.02,28.28.05,1.41,0,2.18,1.15,2.14,3.04-.02.86-.71,1.87-1.35,1.9-3.42.14-6.84.25-10.26.39-1.04.04-2.08,1.13-2.12,2.24-.07,2.28-.14,4.56-.15,6.85-.02,8.57,0,17.14-.05,25.71,0,1.09-.32,2.21-.65,3.27-.32,1.03-1.37.88-2.17.92-.85.04-1.78-.2-2.03-1.14-.28-1.08-.46-2.22-.47-3.33-.05-5.14-.02-10.28-.02-15.43h0Z"/>
  <path class="cls-4" d="m1120.56,188.32c0-6.56-.02-13.12.01-19.67,0-1.37.81-2.27,1.91-2.38,1.81-.18,3.05.57,3.14,1.97.1,1.7.18,3.41.19,5.12.02,7.42,0,14.83.01,22.25,0,2.28.01,4.56.06,6.84.04,1.75.92,2.76,2.49,2.78,3.99.07,7.98.06,11.97.13,1.42.02,2.84.15,4.25.28,1.02.09,1.93,2.58,1.28,3.57-.29.44-.76.83-1.23,1.05-.5.23-1.1.28-1.66.31-.85.05-1.71.03-2.57.04-17.02.19-19,.16-19.3-1.08-1.46-6.16-.36-12.43-.69-18.65-.04-.85,0-1.71,0-2.57.04,0,.08,0,.12,0Z"/>
  <path class="cls-1" d="m772.98,188.91c0,6.54.03,13.08-.04,19.62,0,.79-.37,1.66-1.41,1.89-1.15.26-2.27.28-3.14-.62-.36-.37-.67-.96-.68-1.46-.09-3.69-.12-7.39-.13-11.09-.01-8.53-.02-17.07.02-25.6,0-1.4.27-2.8.46-4.19.11-.83,1.51-1.51,2.84-1.28.8.14,1.72.4,1.84,1.43.17,1.4.32,2.82.33,4.22.04,5.69.02,11.38.02,17.07-.04,0-.07,0-.11,0Z"/>
  <path class="cls-1" d="m1099.79,189.03c0,5.97.02,11.95-.02,17.92,0,.82-.24,1.65-.41,2.46-.15.72-1.73,1.33-3,1.14-.87-.14-1.62-.61-1.83-1.5-.19-.82-.23-1.68-.24-2.53-.01-11.95-.01-23.89,0-35.84,0-.85.08-1.7.15-2.55.08-1.07,1.11-1.93,2.34-1.97,1.32-.05,2.57.67,2.68,1.58.14,1.12.31,2.25.32,3.37.03,5.97.01,11.95.01,17.92h-.01Z"/>
  <path class="cls-3" d="m80.65,207.35c3.04-.61,6.08-.5,9.14-.14-3.59,11.61-7.18,23.22-10.79,34.83-.06.18-.38.41-.54.39-.23-.03-.62-.29-.62-.44.1-5.37-.02-10.77.44-16.11.53-6.2,1.57-12.35,2.38-18.53Z"/>
  <path class="cls-4" d="m439.81,187.87c0,6,.02,11.99-.02,17.99,0,1.12-.24,2.24-.41,3.35-.13.82-1.38,1.27-2.86,1.23-1.06-.03-1.55-.77-1.82-1.5-.29-.77-.24-1.69-.25-2.54-.01-11.99-.02-23.98,0-35.97,0-.85.14-1.7.23-2.55.09-.88,1.49-1.78,2.59-1.68,1.37.12,2.32.86,2.35,2,.1,3.71.16,7.41.2,11.12.03,2.85,0,5.71,0,8.56h0Z"/>
  <path class="cls-5" d="m1483.69,167.7c.16,1.12.44,2.25.45,3.37.03,11.42.03,22.83,0,34.25,0,1.13-.23,2.26-.35,3.39l-4.44.02c-.12-1.11-.35-2.22-.35-3.32-.02-11.19-.01-22.39,0-33.58,0-.83.17-1.67.26-2.5l4.42-1.63Z"/>
  <path class="cls-1" d="m1483.69,167.7l-4.42,1.63c-.28-1.08-.46-2.26.69-2.84,1.18-.6,2.52-.73,3.57.43.15.17.11.52.16.78Z"/>
  <path class="cls-1" d="m1479.36,208.73l4.44-.02c-.61,1.65-.98,1.9-2.59,1.84-1.19-.04-1.91-.52-1.85-1.82Z"/>
</svg>